# xmcd
#
# Track frame offsets:
# 182
# 9672
# 18725
# 31517
# 43272
# 54335
# 63082
# 72385
# 84710
# 95090
# 107305
# 115932
#
# Disc length: 1674 seconds
#
#
# Revision: 2
# Processed by: cddbd v1.5.2PL0 Copyright (c) Steve Scherf et al.
# Submitted via: FreeRIP 2.943 
#
DISCID=9606880c
DTITLE=Elvis Presley - The Best Of Elvis Presley
DYEAR=1990
DGENRE=Rock and Roll
TTITLE0=Don't Be Cruel
TTITLE1=Tutti Frutti
TTITLE2=Love Me Tender
TTITLE3=Money Honey
TTITLE4=I Got A Woman
TTITLE5=Rip It Up
TTITLE6=Blue Suede Shoes
TTITLE7=Love Me
TTITLE8=Hound Dog
TTITLE9=I Want You I Need You I Love You
TTITLE10=Long Tall Sally
TTITLE11=Heartbreak Hotel
EXTD=
EXTT0=
EXTT1=
EXTT2=
EXTT3=
EXTT4=
EXTT5=
EXTT6=
EXTT7=
EXTT8=
EXTT9=
EXTT10=
EXTT11=
PLAYORDER=
